<svg xmlns="http://www.w3.org/2000/svg" xmlns:xlink="http://www.w3.org/1999/xlink" width="50mm" height="50mm" fill-rule="evenodd" clip-rule="evenodd" image-rendering="optimizeQuality" shape-rendering="geometricPrecision" text-rendering="geometricPrecision" version="1.1" viewBox="0 0 50 50"><metadata/><defs><linearGradient id="GGG"><stop offset="0" stop-color="#f5f5f5"/><stop offset="1" stop-color="#7e7e7e"/></linearGradient><linearGradient id="linearGradient7368" x1="719.94" x2="742.36" y1="1208.7" y2="1208.7" gradientUnits="userSpaceOnUse" xlink:href="#GGG"/><linearGradient id="linearGradient7372" x1="854.8" x2="868.03" y1="1429.4" y2="1429.4" gradientUnits="userSpaceOnUse"><stop offset="0"/><stop offset="1" stop-opacity="0"/></linearGradient><linearGradient id="linearGradient7374" x1="850.54" x2="857.14" y1="1434.1" y2="1434.1" gradientUnits="userSpaceOnUse" xlink:href="#linearGradient4161"/><linearGradient id="linearGradient4161"><stop offset="0" stop-color="#fff"/><stop offset="1" stop-color="#fff" stop-opacity="0"/></linearGradient><linearGradient id="linearGradient7376" x1="858" x2="859.64" y1="1420.9" y2="1420.9" gradientUnits="userSpaceOnUse" xlink:href="#linearGradient4161"/><linearGradient id="linearGradient7378" x1="-20.75" x2="6.102" y1="544.53" y2="544.53" gradientTransform="translate(2017.8 448.59)" gradientUnits="userSpaceOnUse" xlink:href="#GGG"/><linearGradient id="linearGradient7380" x1="1911.6" x2="1938.4" y1="940.86" y2="940.86" gradientTransform="translate(85.454 52.258)" gradientUnits="userSpaceOnUse" xlink:href="#GGG"/><linearGradient id="linearGradient7382" x1="7236" x2="7315.1" y1="3545.9" y2="3545.9" gradientTransform="matrix(.26458 0 0 .26458 85.454 52.258)" gradientUnits="userSpaceOnUse" xlink:href="#linearGradient4161"/></defs><g><g><g><g><path fill="url(#linearGradient7368)" stroke="url(#linearGradient7368)" stroke-width=".2" d="m731.15 1193.6c-2.0344 0-3.6834 0.8388-3.6834 1.8738l1.4653 2.5292c-15.506 13.446-6.0254 25.896-6.0254 25.896h16.487s6.0761-7.9824 0.53846-18.067l-4.3262 6.4065c-0.24139 0.3574-0.73161 0.4563-1.0995 0.2218l-2.6215-1.6715c-0.36791-0.2345-0.46972-0.7108-0.22834-1.0683l5.4091-8.0101c-1.036-1.2212-2.2587-2.4601-3.6974-3.7076l1.4653-2.5292c5e-5 -1.035-1.6494-1.8735-3.6839-1.8738z" transform="translate(-1563.6 -1028.3) translate(728.01 -380.43) translate(3.9687 3.9687) translate(125.77 220.63)"/></g><path fill="url(#linearGradient7372)" d="m856.92 1414.2c-0.7887 0-1.518 0.1274-2.1172 0.3421 2.4488 0.4546 4.3851 1.4115 4.3851 1.4115s-1.0831 1.6546-1.9115 2.7405l3.1362 3.4037c-3.5328 7.8641-3.1166 8.6465-3.1166 8.6465s2.24-3.5471 5.54-8.4337c-1.036-1.2212-2.2588-2.4603-3.6974-3.7077l1.465-2.5291c5e-5 -1.035-1.6491-1.8735-3.6835-1.8738zm8.7824 12.232-1.3494 1.997c2.4133 8.1829-3.4224 16.07-3.4224 16.07h4.2333s6.0762-7.9823 0.53848-18.066z" opacity=".1" transform="translate(-1563.6 -1028.3) translate(728.01 -380.43) translate(3.9687 3.9687)"/></g><path fill="url(#linearGradient7374)" d="m851.04 1443c-0.21166-0.03-2.7726-9.2839 6.0947-17.84-2.2239 1.8085-7.4288 12.507-6.0947 17.84z" transform="translate(-1563.6 -1028.3) translate(728.01 -380.43)"/><path fill="url(#linearGradient7376)" d="m859.61 1422.8-1.6123-2.8525s0.24805-0.4879 1.6371-0.8599c-8e-3 0.017-1.0666 0.9095-1.0666 0.9095z" transform="translate(-1563.6 -1028.3) translate(728.01 -380.43)"/></g></g><g><path fill="url(#linearGradient7378)" fill-rule="evenodd" stroke="url(#linearGradient7380)" stroke-linejoin="round" stroke-width=".2" d="m2010.4 989.15s-8.5779 0.048-10.983 1.6192c-1.6227 1.0602-2.0055 2.0639-1.7847 4.7362h25.536c0.2207-2.6723-0.1622-3.6761-1.7849-4.7362-2.4047-1.5711-10.983-1.6192-10.983-1.6192z" clip-rule="evenodd" image-rendering="optimizeQuality" shape-rendering="geometricPrecision" transform="translate(-1985.4 -950.6)"/><path fill="url(#linearGradient7382)" d="m2009 989.73c-3.2334 0.0337-5.7858 0.38114-7.7267 0.94774 6.1468-0.43777 12.256-0.49689 18.309 0-2.2181-0.64754-5.2353-1.0087-9.1545-0.94258-0.4899-8e-3 -0.9659-0.01-1.4278-5e-3z" transform="translate(-1985.4 -950.6)"/></g><path fill="none" stroke="#646464" stroke-width=".3" d="m25.33 9.405c-2.0342 1.437e-4 -3.683 0.83888-3.683 1.8738l1.465 2.5296c-13.811 11.976-7.812 23.137-6.3329 25.439-1.1552 0.22616-2.155 0.52565-2.7616 0.92191-1.6227 1.0602-2.0057 2.0638-1.7849 4.7361h25.536c0.2207-2.6723-0.1622-3.676-1.7849-4.7361-0.50121-0.32746-1.2783-0.58629-2.1823-0.79478 1.0213-1.5404 5.2196-8.7985 0.31109-17.737l-4.3264 6.4063c-0.24139 0.3574-0.73178 0.45619-1.0997 0.22169l-2.6215-1.6712c-0.36791-0.2345-0.46927-0.71117-0.22789-1.0687l5.409-8.0098c-1.036-1.2212-2.2588-2.4603-3.6974-3.7078l1.465-2.529c5.1e-5 -1.0349-1.6487-1.8733-3.683-1.8738z"/></svg>