<svg xmlns="http://www.w3.org/2000/svg" xmlns:xlink="http://www.w3.org/1999/xlink" width="50mm" height="50mm" fill-rule="evenodd" clip-rule="evenodd" image-rendering="optimizeQuality" shape-rendering="geometricPrecision" text-rendering="geometricPrecision" version="1.1" viewBox="0 0 50 50"><metadata/><defs><linearGradient id="GGG"><stop offset="0" stop-color="#f5f5f5"/><stop offset="1" stop-color="#7e7e7e"/></linearGradient><linearGradient id="linearGradient7402" x1="2101.1" x2="2123.5" y1="964.98" y2="964.98" gradientTransform="translate(-2087.3 -939.26)" gradientUnits="userSpaceOnUse" xlink:href="#GGG"/><linearGradient id="linearGradient7404" x1="1407.1" x2="1429.6" y1="1310" y2="1310" gradientTransform="translate(-1393.4 -1284.3)" gradientUnits="userSpaceOnUse" xlink:href="#GGG"/><linearGradient id="linearGradient7406" x1="1412.3" x2="1429.5" y1="1309.8" y2="1309.8" gradientTransform="translate(-1393.4 -1284.3)" gradientUnits="userSpaceOnUse"><stop offset="0"/><stop offset="1" stop-opacity="0"/></linearGradient><linearGradient id="linearGradient7408" x1="1408" x2="1409.1" y1="1300.4" y2="1300.4" gradientTransform="translate(-1393.4 -1284.3)" gradientUnits="userSpaceOnUse" xlink:href="#linearGradient4161"/><linearGradient id="linearGradient4161"><stop offset="0" stop-color="#fff"/><stop offset="1" stop-color="#fff" stop-opacity="0"/></linearGradient><linearGradient id="linearGradient7410" x1="1416.3" x2="1417.3" y1="1298.4" y2="1298.4" gradientTransform="translate(-1393.4 -1284.3)" gradientUnits="userSpaceOnUse" xlink:href="#linearGradient4161"/><linearGradient id="linearGradient7412" x1="1426.1" x2="1426.8" y1="1297.9" y2="1297.9" gradientTransform="translate(-1393.4 -1284.3)" gradientUnits="userSpaceOnUse" xlink:href="#linearGradient4161"/><linearGradient id="linearGradient7414" x1="1411.1" x2="1413.7" y1="1312.6" y2="1312.6" gradientTransform="translate(-1393.4 -1284.3)" gradientUnits="userSpaceOnUse" xlink:href="#linearGradient4161"/><linearGradient id="linearGradient7416" x1="-20.75" x2="6.102" y1="544.53" y2="544.53" gradientTransform="translate(32.324 -502.01)" gradientUnits="userSpaceOnUse" xlink:href="#GGG"/><linearGradient id="linearGradient7418" x1="1911.6" x2="1938.4" y1="940.86" y2="940.86" gradientTransform="translate(-1900 -898.34)" gradientUnits="userSpaceOnUse" xlink:href="#GGG"/><linearGradient id="linearGradient7420" x1="7236" x2="7315.1" y1="3545.9" y2="3545.9" gradientTransform="matrix(.26458 0 0 .26458 -1900 -898.34)" gradientUnits="userSpaceOnUse" xlink:href="#linearGradient4161"/></defs><path fill="url(#linearGradient7402)" stroke="url(#linearGradient7404)" stroke-width=".2" d="m14.183 11.845c-1.825 10.607 4.7656 11.275 4.7656 11.275l-3.3734 16.477h18.849l-3.3734-16.477s6.5912-0.6674 4.7661-11.275h-3.8592v2.9724h-4.179v-2.9129h-5.5578v2.9129h-4.1796v-2.9724z"/><path fill="url(#linearGradient7406)" d="m34.789 11.845c1.6882 11.06-5.0864 10.74-15.84 11.275l-0.09 0.4406c11.24-0.9881 9.4314 5.9153 11.392 15.591h4.2333l-3.4329-16.032s6.5912-0.6674 4.7661-11.275z" opacity=".1"/><path fill="url(#linearGradient7408)" d="m14.835 12.6s-0.6697 4.87 0.6697 7.0694c-1.0831-4.5361 0.2827-7.058 0.2827-7.058z"/><path fill="url(#linearGradient7410)" d="m22.979 15.544v-2.8856l0.926 0.01z"/><path fill="url(#linearGradient7412)" d="m32.726 14.635v-2.0379l0.6725 0.01z"/><path fill="url(#linearGradient7414)" d="m19.603 23.886-1.8475 8.9101 2.6086-8.9335z"/><path fill="url(#linearGradient7416)" fill-rule="evenodd" stroke="url(#linearGradient7418)" stroke-linejoin="round" stroke-width=".2" d="m25 38.545s-8.5779 0.048-10.983 1.6192c-1.6227 1.0602-2.0055 2.0639-1.7847 4.7362h25.536c0.2207-2.6723-0.1622-3.6761-1.7849-4.7362-2.4047-1.5711-10.983-1.6192-10.983-1.6192z" clip-rule="evenodd" image-rendering="optimizeQuality" shape-rendering="geometricPrecision"/><path fill="url(#linearGradient7420)" d="m23.572 39.124c-3.2334 0.034-5.7858 0.3811-7.7267 0.9477 6.1468-0.4378 12.256-0.4969 18.309 0-2.2181-0.6475-5.2353-1.0087-9.1545-0.9426-0.4899-0.01-0.9659-0.01-1.4278-0.01z"/><path fill="none" stroke="#646464" stroke-width=".3" d="m14.183 11.845c-1.825 10.607 4.7656 11.275 4.7656 11.275l-3.3574 16.4c-0.64261 0.17974-1.1888 0.39184-1.5746 0.64389-1.6227 1.0602-2.0052 2.0638-1.7844 4.7361h25.536c0.2207-2.6723-0.1622-3.676-1.7849-4.7361-0.38597-0.25217-0.93205-0.46461-1.5751-0.64441l-3.3574-16.4s6.5912-0.66768 4.7661-11.275h-3.8592v2.9724h-4.1791v-2.9125h-5.5578v2.9125h-4.1796v-2.9724z"/></svg>