<svg xmlns="http://www.w3.org/2000/svg" width="50mm" height="50mm" fill-rule="evenodd" clip-rule="evenodd" image-rendering="optimizeQuality" shape-rendering="geometricPrecision" text-rendering="geometricPrecision" version="1.1" viewBox="0 0 50 50"><defs><linearGradient id="linearGradient865-8" x1="2986.4" x2="3128.4" y1="1623.8" y2="1623.8" gradientTransform="matrix(.27141 0 0 .27218 -804.81 -417.45)" gradientUnits="userSpaceOnUse"><stop offset="0" stop-color="#3c3c3c"/><stop offset="1"/></linearGradient><filter id="filter2813-0-1-2-9-2-3-7-2-7-5-0-0" color-interpolation-filters="sRGB"><feGaussianBlur result="blur" stdDeviation="0.01 0.01"/></filter><filter id="filter935" color-interpolation-filters="sRGB"><feFlood flood-color="#000" flood-opacity=".498" result="flood"/><feComposite in="flood" in2="SourceGraphic" operator="in" result="composite1"/><feGaussianBlur in="composite1" result="blur" stdDeviation=".6"/><feOffset dx="1.6" dy="1.4" result="offset"/><feComposite in="SourceGraphic" in2="offset" result="composite2"/></filter></defs><path fill="url(#linearGradient865-8)" fill-rule="evenodd" stroke="#e6e6e6" stroke-width="1.1" d="m23.283 5.5508v3.2374h-3.364v2.9195h3.364v1.758c-3.3676 2.1271-2.9956 5.7407-2.9956 5.7407-11.009-8.516-20.672 7.563-7.9441 13.053v8.7341c0 0.94913 5.6669 2.4554 12.657 2.4554 6.9899 0 12.657-1.5063 12.657-2.4554v-8.7341c12.728-5.4903 3.0652-21.569-7.9436-13.053 0 0 0.37202-3.6136-2.9956-5.7407v-1.758h3.364v-2.9195h-3.364v-3.2374h-1.7175z" clip-rule="evenodd" filter="url(#filter935)" image-rendering="optimizeQuality" shape-rendering="geometricPrecision"/><ellipse cx="71.077" cy="131.54" fill="#e6e6e6" fill-rule="evenodd" stroke-width="1.108" class="st15" clip-rule="evenodd" filter="url(#filter2813-0-1-2-9-2-3-7-2-7-5-0-0)" image-rendering="optimizeQuality" rx="32.126" ry="2.844" shape-rendering="geometricPrecision" transform="matrix(.28533 0 0 .3223 4.72 -1.9797)"/><path fill="none" stroke="#e6e6e6" stroke-width="1.4" d="m27.032 30.267c1.4893-12.102 11.943-12.441 13.364-7.3792 1.4208 5.0616-4.7357 7.3792-4.7357 7.3792s-4.8752-0.63833-10.66-0.63833-10.66 0.63833-10.66 0.63833-6.1565-2.3176-4.7357-7.3792 11.874-4.7226 13.364 7.3792"/></svg>