<svg xmlns="http://www.w3.org/2000/svg" xmlns:xlink="http://www.w3.org/1999/xlink" width="50mm" height="50mm" fill-rule="evenodd" clip-rule="evenodd" image-rendering="optimizeQuality" shape-rendering="geometricPrecision" text-rendering="geometricPrecision" version="1.1" viewBox="0 0 50 50"><defs><linearGradient id="linearGradient5283-7-6" x1="-455.39" x2="-419.41" y1="-338.23" y2="-338.23" gradientTransform="matrix(1.0008 0 0 1.0001 462.75 363.26)" gradientUnits="userSpaceOnUse"><stop offset="0" stop-color="#3c3c3c"/><stop offset="1"/></linearGradient><filter id="filter930" color-interpolation-filters="sRGB"><feFlood flood-color="#000" flood-opacity=".498" result="flood"/><feComposite in="flood" in2="SourceGraphic" operator="in" result="composite1"/><feGaussianBlur in="composite1" result="blur" stdDeviation=".6"/><feOffset dx="1.6" dy="1.4" result="offset"/><feComposite in="SourceGraphic" in2="offset" result="composite2"/></filter></defs><metadata/><path fill="url(#linearGradient5283-7-6)" fill-rule="evenodd" stroke="#e6e6e6" stroke-width="1.1" d="m18.474 30.285c2.1026-1.198 3.3251-1.183 5.467-2.1991 0.2244 7.4251-9.9086 7.4565-8.0926 15.361l26.426 3e-3s3.0977-32.274-16.795-33.626c0 0-1.9157-3.605-3.9286-3.2497 0 0-1.0654 0.83744-0.45734 3.2065l-2.3061 0.74593s-3.2163-2.0717-4.1271-1.2701c-0.8586 0.36934 1.099 3.2798 1.8779 3.9863-0.78924 1.1423-8.5492 12.109-8.9675 15.682-0.26658 2.2772 2.023 3.5185 3.7189 4.1193 0.96498 0.34188 1.7378 0.4764 1.7378 0.4764 1.4255-0.25596 3.3449-2.0374 5.4475-3.2354z" clip-rule="evenodd" filter="url(#filter930)" image-rendering="optimizeQuality" shape-rendering="geometricPrecision"/><path fill="none" stroke="#e6e6e6" stroke-linecap="round" stroke-width="1.1" d="m23.941 28.086s4.4334-1.8669 4.2241-5.8348"/><g><path stroke="#e6e6e6" stroke-linecap="round" stroke-width="1.4" d="m19.104 18.473s0.59407-1.8464 3.4529-2.2941"/><ellipse cx="21.027" cy="18.001" fill="#e6e6e6" rx="1.242" ry="1.168" style="paint-order:markers fill stroke"/><path fill="#fff" stroke="#e6e6e6" stroke-linecap="round" stroke-width="1.4" d="m9.1691 29.241s0.25452-0.68232 0.92457-1.1184"/><path fill="#fff" stroke="#e6e6e6" stroke-linecap="round" stroke-width="1.2" d="m11.64 32.283c0.69051-0.8867 1.5832-1.3188 2.3844-1.9567"/></g><path fill="none" stroke="#e6e6e6" stroke-linejoin="round" stroke-width="1.4" d="m30.806 14.872c4.3051 2.6334 8.4595 9.2509 8.1094 26.08"/></svg>