<svg xmlns="http://www.w3.org/2000/svg" width="50mm" height="50mm" fill-rule="evenodd" clip-rule="evenodd" image-rendering="optimizeQuality" shape-rendering="geometricPrecision" text-rendering="geometricPrecision" version="1.1" viewBox="0 0 50 50"><defs><linearGradient id="linearGradient2720" x1="13197" x2="13341" y1="-9591" y2="-9591" gradientTransform="matrix(.26458 0 0 .26458 -3485.7 2562.6)" gradientUnits="userSpaceOnUse"><stop offset="0" stop-color="#fff"/><stop offset="1" stop-color="#e6e6e6"/></linearGradient><filter id="filter2809-5-8-5-1-4-7-4" color-interpolation-filters="sRGB"><feGaussianBlur result="blur" stdDeviation="0.01 0.01"/></filter><filter id="filter845" color-interpolation-filters="sRGB"><feFlood flood-color="#000" flood-opacity=".498" result="flood"/><feComposite in="flood" in2="SourceGraphic" operator="in" result="composite1"/><feGaussianBlur in="composite1" result="blur" stdDeviation=".3"/><feOffset dx="1" dy="1" result="offset"/><feComposite in="SourceGraphic" in2="offset" result="composite2"/></filter></defs><g clip-rule="evenodd" shape-rendering="geometricPrecision"><g fill-rule="evenodd"><path fill="url(#linearGradient2720)" stroke="#000" stroke-linejoin="round" stroke-width="1.1" d="m25 6.55c-0.87762 0-1.6536 0.29049-2.2614 0.90278-0.64109 0.6123-0.94562 1.3212-0.94562 2.1591 0 1.2247 0.57388 2.127 1.7555 2.7394-2.9692 3.2861-8.7077 5.8222-8.8109 10.828 0.0079 2.6744 1.4661 4.7641 3.3084 6.7996l-1.1142 5.8332c1.697 0.5416 3.0898 0.94168 4.8276 1.1281-3.882 4.5762-10.787-1.7402-15.209 2.9326l2.3302 3.5771c5.5928-3.962 13.374 3.6729 16.12-3.9621 2.7458 7.6351 10.527 0.0037 16.12 3.9621l2.3297-3.5771c-4.422-4.6729-11.327 1.6436-15.209-2.9326 1.7378-0.1864 3.1303-0.58653 4.8273-1.1281l-1.1142-5.8332c1.8423-2.0355 3.3012-4.1252 3.3084-6.7996-0.10319-5.0062-5.8417-7.5422-8.8109-10.828 1.1816-0.6124 1.7555-1.5147 1.7555-2.7394 0-0.8378-0.30401-1.5468-0.94536-2.1591-0.60775-0.6123-1.3838-0.90278-2.2614-0.90278z" filter="url(#filter845)" image-rendering="optimizeQuality"/><ellipse cx="2720.3" cy="-271.4" stroke-width=".918" class="st15" filter="url(#filter2809-5-8-5-1-4-7-4)" image-rendering="optimizeQuality" rx="16.3" ry="2.5" transform="matrix(.33232 0 0 .24998 -879.01 102.47)"/><ellipse cx="25" cy="9.611" stroke-width=".265" class="st15" image-rendering="optimizeQuality" rx="1.14" ry="1.147"/></g><path fill="none" stroke="#000" stroke-width="1.4" d="m21.333 23.266h7.333m-3.6663-3.3339v6.7524" image-rendering="optimizeQuality"/></g></svg>