<svg xmlns="http://www.w3.org/2000/svg" width="50mm" height="50mm" fill-rule="evenodd" clip-rule="evenodd" image-rendering="optimizeQuality" shape-rendering="geometricPrecision" text-rendering="geometricPrecision" version="1.1" viewBox="0 0 50 50"><defs><linearGradient id="linearGradient3009-3" x1="4127.3" x2="4235.7" y1="-2558.4" y2="-2558.4" gradientTransform="matrix(.27677 0 0 .27555 -1132.3 731.96)" gradientUnits="userSpaceOnUse"><stop offset="0" stop-color="#fff"/><stop offset="1" stop-color="#e6e6e6"/></linearGradient><filter id="filter834" color-interpolation-filters="sRGB"><feFlood flood-color="#000" flood-opacity=".498" result="flood"/><feComposite in="flood" in2="SourceGraphic" operator="in" result="composite1"/><feGaussianBlur in="composite1" result="blur" stdDeviation=".3"/><feOffset dx="1" dy="1" result="offset"/><feComposite in="SourceGraphic" in2="offset" result="composite2"/></filter></defs><metadata/><g fill-rule="evenodd" stroke-width="1.031" clip-rule="evenodd" image-rendering="optimizeQuality" shape-rendering="geometricPrecision"><path fill="url(#linearGradient3009-3)" stroke="#000" stroke-linecap="square" stroke-linejoin="round" stroke-width="1.135" d="m25.024 43.401h-13.905c-2.5514-5.8853 4.2134-11.341 8.9683-13.194-5.6827-3.1606-2.6021-11.219 2.2688-11.873-1.1598-0.7629-1.7396-2.3929-1.7396-3.7008 0-1.0899 0.46392-2.0708 1.2757-2.8337 0.81185-0.7629 1.8556-1.1988 3.1313-1.1988 1.1597 0 2.2035 0.43593 3.1313 1.1988 0.81182 0.7629 1.2757 1.7438 1.2757 2.8337 0 1.3078-0.57989 2.9379-1.7397 3.7008 5.3348 2.0707 7.2558 9.6931 2.2689 11.873 6.4945 2.2887 11.056 8.0716 8.9683 13.194z" class="st31" filter="url(#filter834)" transform="matrix(.96658 0 0 .97245 .83342 1.2431)"/></g></svg>