<svg xmlns="http://www.w3.org/2000/svg" xmlns:xlink="http://www.w3.org/1999/xlink" width="50mm" height="50mm" fill-rule="evenodd" clip-rule="evenodd" image-rendering="optimizeQuality" shape-rendering="geometricPrecision" text-rendering="geometricPrecision" version="1.1" viewBox="0 0 50 50"><defs><linearGradient id="linearGradient1861-4" x1="3295.1" x2="3321.5" y1="-411.88" y2="-411.88" gradientTransform="matrix(1.0621 0 0 1.0589 -3487.5 459.63)" gradientUnits="userSpaceOnUse" xlink:href="#GG"/><linearGradient id="GG"><stop offset="0" stop-color="#796c60"/><stop offset="1" stop-color="#4b403b"/></linearGradient><linearGradient id="linearGradient4568" x1="-177.63" x2="-151.24" y1="156.68" y2="156.68" gradientTransform="matrix(1.1509 0 0 1.1499 214.24 -138.92)" gradientUnits="userSpaceOnUse" xlink:href="#GG"/></defs><metadata/><g fill-rule="evenodd" clip-rule="evenodd" shape-rendering="geometricPrecision"><path fill="url(#linearGradient1861-4)" stroke="#1e1e1e" stroke-linejoin="round" stroke-width="1.6" d="m25.987 23.546-11.592 1.0972-1.4539-5.2159 14.468-6.8148 1.7627-3.9014 10.201 11.893c0 7e-5 -4.1164 17.678-4.1164 17.678l-20.517-3e-5c0.24439-11.292 9.6388-8.1002 11.247-14.736z" class="st28" image-rendering="optimizeQuality"/><path stroke-width="1.1" d="m29.173 8.7206-0.87878 1.9441 0.42601-0.94271c2.6921 3.7225 5.6077 7.2787 8.4495 10.888l-5.285 17.671h3.3727s4.1154-17.667 4.1166-17.671z" image-rendering="optimizeQuality" opacity=".15"/><path fill="url(#linearGradient4568)" stroke="#1e1e1e" stroke-linecap="round" stroke-linejoin="round" stroke-width="1.6" d="m13.24 38.286c-1.4368 0-2.627 1.2165-2.627 2.6847v0.5449l0.0125 2.6847h28.749l0.0125-2.6847v-0.5449c0-1.4682-1.1903-2.6847-2.627-2.6847h-11.76z" image-rendering="optimizeQuality"/></g><path fill="#fff" d="m15.62 37.633c0.15876-4.4723 2.1448-6.9714 8.6668-9.837-0.98675 1.1072-6.4046 2.2365-8.6668 9.837z" opacity=".25"/><path fill="#fff" d="m14.418 21.67-0.5231-1.8028 14.136-6.6567 1.2167-2.7642-0.67098 3.558-14.35 5.9208z" opacity=".25"/></svg>